<?xml version="1.0" encoding="UTF-8"?>
<svg id="Layer_2" data-name="Layer 2" xmlns="http://www.w3.org/2000/svg" xmlns:xlink="http://www.w3.org/1999/xlink" viewBox="0 0 1280 1280">
  <defs>
    <style>
      .cls-1 {
        fill: url(#linear-gradient);
      }

      .cls-1, .cls-2, .cls-3 {
        stroke-width: 0px;
      }

      .cls-2 {
        fill: url(#linear-gradient-2);
      }

      .cls-3 {
        fill: url(#linear-gradient-3);
      }
    </style>
    <linearGradient id="linear-gradient" x1="0" y1="1280" x2="1280" y2="0" gradientUnits="userSpaceOnUse">
      <stop offset="0" stop-color="#283038"/>
      <stop offset="1" stop-color="#52565d"/>
    </linearGradient>
    <linearGradient id="linear-gradient-2" x1="486.29" y1="958.87" x2="486.29" y2="321.13" gradientUnits="userSpaceOnUse">
      <stop offset="0" stop-color="#f84bff"/>
      <stop offset="1" stop-color="#7677ff"/>
    </linearGradient>
    <linearGradient id="linear-gradient-3" x1="792.61" y1="958.87" x2="792.61" y2="321.18" xlink:href="#linear-gradient-2"/>
  </defs>
  <g id="Layer_1-2" data-name="Layer 1">
    <rect class="cls-1" width="1280" height="1280"/>
    <g>
      <path class="cls-2" d="M595.91,323.9c-26.45-5.64-54.59-2.84-81.3,9.88-36.99,17.62-64.2,50.91-78.24,90.41-72.64,35.23-107.18,131.11-77.47,215.09-14.36,39.35-15.59,85.01-.27,127.55,15.25,42.33,43.99,73.53,78.11,89.74,26.45,73.38,93.46,113.3,158.77,99.64,17.04-3.56,29.45-20.6,29.45-40.52V364.33c-.01-19.74-12.18-36.83-29.05-40.43ZM457.69,755.88c-12.23,0-22.14-9.91-22.14-22.14s9.91-22.14,22.14-22.14,22.14,9.91,22.14,22.14-9.91,22.14-22.14,22.14ZM476.71,693.16c0-12.23,9.91-22.14,22.14-22.14s22.14,9.91,22.14,22.14-9.91,22.14-22.14,22.14-22.14-9.91-22.14-22.14ZM498.56,796.75c-12.23,0-22.14-9.91-22.14-22.14s9.91-22.14,22.14-22.14,22.14,9.91,22.14,22.14-9.91,22.14-22.14,22.14ZM539.72,756.17c-12.23,0-22.14-9.91-22.14-22.14s9.91-22.14,22.14-22.14,22.14,9.91,22.14,22.14-9.91,22.14-22.14,22.14ZM498.85,630.7c-29.55,0-53.51-23.96-53.51-53.51s23.96-53.51,53.51-53.51,53.51,23.96,53.51,53.51-23.96,53.51-53.51,53.51Z"/>
      <path class="cls-3" d="M919.07,639.99h0c14.11-39.18,15.22-84.55,0-126.83-15.23-42.3-43.94-73.48-78.03-89.71-26.46-73.36-93.44-113.27-158.74-99.62-17.04,3.56-29.45,20.6-29.45,40.52v551.33c.01,19.75,12.19,36.85,29.07,40.43,26.42,5.61,54.51,2.8,81.17-9.91,36.76-17.51,63.87-50.5,77.99-89.68l4.02-1.81c74.12-33.39,108.1-132.03,73.97-214.73ZM819.82,554.76c12.23,0,22.14,9.91,22.14,22.14s-9.91,22.14-22.14,22.14-22.14-9.91-22.14-22.14,9.91-22.14,22.14-22.14ZM800.8,617.47c0,12.23-9.91,22.14-22.14,22.14s-22.14-9.91-22.14-22.14,9.91-22.14,22.14-22.14,22.14,9.91,22.14,22.14ZM778.95,513.89c12.23,0,22.14,9.91,22.14,22.14s-9.91,22.14-22.14,22.14-22.14-9.91-22.14-22.14,9.91-22.14,22.14-22.14ZM737.79,554.47c12.23,0,22.14,9.91,22.14,22.14s-9.91,22.14-22.14,22.14-22.14-9.91-22.14-22.14,9.91-22.14,22.14-22.14ZM778.66,786.96c-29.55,0-53.51-23.96-53.51-53.51s23.96-53.51,53.51-53.51,53.51,23.96,53.51,53.51-23.96,53.51-53.51,53.51Z"/>
    </g>
  </g>
</svg>