<?xml version="1.0" encoding="UTF-8"?>
<svg id="Layer_2" data-name="Layer 2" xmlns="http://www.w3.org/2000/svg" xmlns:xlink="http://www.w3.org/1999/xlink" viewBox="0 0 584.74 637.74">
  <defs>
    <style>
      .cls-1 {
        fill: url(#linear-gradient);
      }

      .cls-1, .cls-2 {
        stroke-width: 0px;
      }

      .cls-2 {
        fill: url(#linear-gradient-2);
      }
    </style>
    <linearGradient id="linear-gradient" x1="138.67" y1="637.74" x2="138.67" y2="0" gradientUnits="userSpaceOnUse">
      <stop offset="0" stop-color="#f84bff"/>
      <stop offset="1" stop-color="#7677ff"/>
    </linearGradient>
    <linearGradient id="linear-gradient-2" x1="444.98" y1="637.74" x2="444.98" y2=".05" xlink:href="#linear-gradient"/>
  </defs>
  <g id="Layer_1-2" data-name="Layer 1">
    <g>
      <path class="cls-1" d="M248.28,2.78c-26.45-5.64-54.59-2.84-81.3,9.88-36.99,17.62-64.2,50.91-78.24,90.41C16.1,138.3-18.43,234.17,11.27,318.16c-14.36,39.35-15.59,85.01-.27,127.55,15.25,42.33,43.99,73.53,78.11,89.74,26.45,73.38,93.46,113.3,158.77,99.64,17.04-3.56,29.45-20.6,29.45-40.52V43.2c-.01-19.74-12.18-36.83-29.05-40.43ZM110.06,434.75c-12.23,0-22.14-9.91-22.14-22.14s9.91-22.14,22.14-22.14,22.14,9.91,22.14,22.14-9.91,22.14-22.14,22.14ZM129.08,372.03c0-12.23,9.91-22.14,22.14-22.14s22.14,9.91,22.14,22.14-9.91,22.14-22.14,22.14-22.14-9.91-22.14-22.14ZM150.93,475.62c-12.23,0-22.14-9.91-22.14-22.14s9.91-22.14,22.14-22.14,22.14,9.91,22.14,22.14-9.91,22.14-22.14,22.14ZM192.09,435.04c-12.23,0-22.14-9.91-22.14-22.14s9.91-22.14,22.14-22.14,22.14,9.91,22.14,22.14-9.91,22.14-22.14,22.14ZM151.22,309.57c-29.55,0-53.51-23.96-53.51-53.51s23.96-53.51,53.51-53.51,53.51,23.96,53.51,53.51-23.96,53.51-53.51,53.51Z"/>
      <path class="cls-2" d="M571.44,318.86h0c14.11-39.18,15.22-84.55,0-126.83-15.23-42.3-43.94-73.48-78.03-89.71C466.95,28.97,399.96-10.94,334.66,2.7c-17.04,3.56-29.45,20.6-29.45,40.52v551.33c.01,19.75,12.19,36.85,29.07,40.43,26.42,5.61,54.51,2.8,81.17-9.91,36.76-17.51,63.87-50.5,77.99-89.68l4.02-1.81c74.12-33.39,108.1-132.03,73.97-214.73ZM472.19,233.63c12.23,0,22.14,9.91,22.14,22.14s-9.91,22.14-22.14,22.14-22.14-9.91-22.14-22.14,9.91-22.14,22.14-22.14ZM453.17,296.35c0,12.23-9.91,22.14-22.14,22.14s-22.14-9.91-22.14-22.14,9.91-22.14,22.14-22.14,22.14,9.91,22.14,22.14ZM431.32,192.76c12.23,0,22.14,9.91,22.14,22.14s-9.91,22.14-22.14,22.14-22.14-9.91-22.14-22.14,9.91-22.14,22.14-22.14ZM390.16,233.34c12.23,0,22.14,9.91,22.14,22.14s-9.91,22.14-22.14,22.14-22.14-9.91-22.14-22.14,9.91-22.14,22.14-22.14ZM431.03,465.83c-29.55,0-53.51-23.96-53.51-53.51s23.96-53.51,53.51-53.51,53.51,23.96,53.51,53.51-23.96,53.51-53.51,53.51Z"/>
    </g>
  </g>
</svg>